# xmcd
# 
# Track frame offsets:
#     150
#     11805
#     34835
#     53511
#     68458
#     81791
#     96093
#     110423
#     122982
#     138777
#     152712
#     167809
# 
# Disc length: 2461
# 
# Revision: 2
# Processed by: cddbd v1.5.2PL0 Copyright (c) Steve Scherf et al.
# Submitted via: BonkEnc v1.0
# 
DISCID=92099b0c
DTITLE=Amos`Garrett - Acoustic Album
DYEAR=2004
DGENRE=Blues
TTITLE0=She Don't Go Nowhere (til the stars come out at night)
TTITLE1=Sam's Song
TTITLE2=Perfume and Tobacco
TTITLE3=Judgement Day
TTITLE4=Hong Kong Blues
TTITLE5=Michigan Water Blues
TTITLE6=I Hate Myself
TTITLE7=Bailey Hill Requiem
TTITLE8=Always Got Your Hands on That Guitar
TTITLE9=Grasshoppers in My Pillow
TTITLE10=Small Fry
TTITLE11=Some Musician Was to Blame
EXTD=
EXTT0=
EXTT1=
EXTT2=
EXTT3=
EXTT4=
EXTT5=
EXTT6=
EXTT7=
EXTT8=
EXTT9=
EXTT10=
EXTT11=
PLAYORDER=
